<?xml version="1.0" encoding="UTF-8"?> <!-- Creator: CorelDRAW X6 --> <svg xmlns="http://www.w3.org/2000/svg" xmlns:xlink="http://www.w3.org/1999/xlink" xml:space="preserve" width="149.18mm" height="149.211mm" style="shape-rendering:geometricPrecision; text-rendering:geometricPrecision; image-rendering:optimizeQuality; fillRule:evenodd; clipRule:evenodd" viewBox="0 0 7290 7291"> <defs> <style type="text/css"> <![CDATA[ .str0 {stroke:#FEFEFE;stroke-width:146.598} .fil1 {fill:none} .fil0 {fill:#E85222} ]]> </style> </defs> <g id="Слой_x0020_1"> <metadata id="CorelCorpID_0Corel-Layer"></metadata>
 <path style="fill:black" class="fil0" d="M3390 12c-962,87 -1559,386 -2228,962 -93,80 -249,258 -330,352 -100,115 -203,267 -287,397 -680,1060 -720,2486 -141,3604 308,592 758,1066 1313,1418 1069,677 2478,726 3605,141 354,-184 776,-498 1026,-795 35,-42 70,-81 105,-122 578,-680 903,-1669 825,-2581 -46,-544 -181,-1001 -398,-1419 -238,-460 -535,-807 -916,-1132 -114,-97 -267,-205 -396,-287 -599,-379 -1432,-606 -2178,-538z"></path> <g id="_650298560"> <rect class="fil1 str0" x="1573" y="2451" width="4145" height="2852" rx="178" ry="178"></rect> 
 <path style="fill:white" class="fil1 str0" d="M1750 2451l3789 0c98,0 178,80 178,178l0 449c-527,536 -1261,868 -2072,868 -811,0 -1545,-332 -2072,-868l0 -449c0,-98 80,-178 177,-178z"></path> <rect class="fil1 str0" x="3070" y="1988" width="1150" height="462" rx="83" ry="83"></rect> <line class="fil1 str0" x1="1573" y1="4852" x2="5717" y2="4852"></line> <rect class="fil0 str0" x="3426" y="3577" width="439" height="694" rx="219" ry="219"></rect> </g> </g> </svg> 