<svg width="188" height="22" viewBox="0 0 188 22" fill="none" xmlns="http://www.w3.org/2000/svg">
<path d="M22.5275 11C22.5275 17.0751 17.4845 22 11.2637 22C5.04294 22 0 17.0751 0 11C0 4.92487 5.04294 0 11.2637 0C13.9532 0 16.4225 0.920528 18.3593 2.45656L16.1988 4.0228C14.7974 3.07571 13.0969 2.52087 11.2637 2.52087C6.46856 2.52087 2.58131 6.31711 2.58131 11C2.58131 15.6829 6.46856 19.4791 11.2637 19.4791C16.0589 19.4791 19.9462 15.6829 19.9462 11C19.9462 10.9298 19.9453 10.8598 19.9435 10.7899L22.3502 9.04534C22.4667 9.67969 22.5275 10.3329 22.5275 11Z" fill="#181818"/>
<path d="M36.6517 15.4014C37.5348 15.4008 38.4036 15.1836 39.1787 14.7698L39.8409 14.4361L41.7261 15.7987C40.4869 17.0977 38.6465 17.8088 36.5379 17.8088C34.6228 17.8438 32.7696 17.1453 31.3741 15.8622C30.7169 15.2174 30.1986 14.4503 29.8497 13.6063C29.5008 12.7623 29.3284 11.8585 29.3427 10.9482C29.3223 10.0502 29.4922 9.15773 29.8418 8.32705C30.1914 7.49637 30.7131 6.74546 31.3741 6.12161C32.7992 4.87912 34.6535 4.21182 36.5623 4.25453C38.2827 4.19542 39.9645 4.7615 41.2832 5.84354L41.4173 5.97066L39.3087 7.48419C38.5364 6.93813 37.6047 6.6498 36.6517 6.66188C34.0109 6.66188 32.1054 8.50115 32.1054 11.0317C32.1054 13.5621 34.0109 15.4014 36.6517 15.4014Z" fill="#181818"/>
<path fillRule="evenodd" clipRule="evenodd" d="M47.1135 9.55801H50.6603L50.6684 9.56993C53.9064 9.56993 55.6819 10.9524 55.6819 13.4868C55.6819 16.1286 53.7074 17.6421 50.2946 17.6421H44.2005V4.40565H55.8606L52.8014 6.6104H47.1135V9.55801ZM47.1135 15.4215H50.1728C51.9685 15.4215 52.9029 14.8335 52.9029 13.602C52.9029 12.3706 52.0376 11.7628 50.1728 11.7628H47.1135V15.4215Z" fill="#181818"/>
<path d="M68.6419 4.40565L65.5827 6.6104H61.3249V9.83608H67.5775V12.0448H61.3249V15.4215H68.6419V17.6302H58.3997V4.40565H68.6419Z" fill="#181818"/>
<path fillRule="evenodd" clipRule="evenodd" d="M76.9342 4.41359H71.3682V17.6421H74.2974V13.8841H76.9585C80.5053 13.8841 82.7195 12.0686 82.7195 9.14487C82.7195 6.22109 80.4932 4.40565 76.9342 4.40565V4.41359ZM76.8692 11.6833H74.273V6.6104H76.8692C78.7543 6.6104 79.774 7.52408 79.774 9.14487C79.774 10.7657 78.7543 11.6833 76.8692 11.6833Z" fill="#181818"/>
<path d="M20.1774 4.31812C20.7088 5.00145 21.1625 5.73941 21.5303 6.5189L11.288 13.884L6.98557 11.2422V8.06421L11.2637 10.702L20.1774 4.31812Z" fill="#181818"/>
<path d="M146.093 0.284959C145.536 0.284959 145.085 0.725828 145.085 1.26966V1.85554C145.085 2.39938 145.536 2.84025 146.093 2.84025H146.693C147.25 2.84025 147.701 2.39938 147.701 1.85554V1.26966C147.701 0.725828 147.25 0.284959 146.693 0.284959H146.093Z" fill="#181818"/>
<path d="M167.13 4.9358L163.844 9.86555C163.252 9.67129 162.656 9.62925 162.106 9.67791V5.69569C162.106 4.98855 161.519 4.41532 160.795 4.41532C160.071 4.41532 159.484 4.98855 159.484 5.69569V16.3735C159.484 17.0806 160.071 17.6538 160.795 17.6538C161.519 17.6538 162.106 17.0806 162.106 16.3735V12.1293C162.59 12.0415 163.236 12.086 163.774 12.6809C164.439 13.4145 166.284 16.1132 166.95 17.0939C167.064 17.2655 167.221 17.4066 167.406 17.5042C167.59 17.6017 167.797 17.6525 168.007 17.6519H169.619C170.375 17.6519 170.971 17.1395 170.971 16.4261C170.971 15.7084 170.33 15.2004 169.619 15.2004H168.689C167.993 14.1884 166.539 12.104 165.777 11.209L169.116 6.19865C169.474 5.66299 169.319 4.94592 168.77 4.59731C168.222 4.24852 167.487 4.39988 167.13 4.9358Z" fill="#181818"/>
<path fillRule="evenodd" clipRule="evenodd" d="M179.977 15.4983L179.436 16.883C179.194 17.5008 178.485 17.8107 177.852 17.5746C177.22 17.3387 176.902 16.6465 177.144 16.0286L181.385 5.18104C181.571 4.70338 182.037 4.41005 182.532 4.41025C183.026 4.41005 183.492 4.70338 183.678 5.18104L187.919 16.0286C188.161 16.6465 187.843 17.3387 187.211 17.5746C186.578 17.8107 185.869 17.5008 185.627 16.883L185.086 15.4983H179.977ZM180.882 13.1836L182.532 8.96375L184.181 13.1836H180.882Z" fill="#181818"/>
<path d="M142.754 4.41141C142.03 4.41141 141.443 4.98464 141.443 5.69178V16.3735C141.443 17.0806 142.03 17.6538 142.754 17.6538C143.478 17.6538 144.065 17.0806 144.065 16.3735V15.7214L149.106 10.7987V16.3735C149.106 17.0806 149.693 17.6538 150.417 17.6538C151.142 17.6538 151.728 17.08 151.728 16.3735V5.69178C151.728 4.98464 151.141 4.41141 150.417 4.41141C149.693 4.41141 149.106 4.98464 149.106 5.69178V7.17731L144.065 12.0997V5.69178C144.065 4.98464 143.478 4.41141 142.754 4.41141Z" fill="#181818"/>
<path fillRule="evenodd" clipRule="evenodd" d="M123.791 11.0326C123.791 13.5142 123.843 14.9985 125.161 16.2848C126.134 17.1649 127.412 17.6538 128.739 17.6538C130.066 17.6538 131.344 17.1649 132.318 16.2848C133.635 14.9905 133.688 13.5103 133.688 11.0326C133.688 8.55492 133.635 7.07069 132.318 5.78435C131.344 4.90421 130.066 4.41531 128.739 4.41531C127.412 4.41531 126.134 4.90421 125.161 5.78435C123.843 7.07464 123.791 8.55096 123.791 11.0326ZM126.425 11.0524C126.425 8.547 126.567 7.93748 127.065 7.38336C127.272 7.15071 127.53 6.96705 127.82 6.84635C128.11 6.72565 128.424 6.67108 128.739 6.68677C129.053 6.67832 129.365 6.73619 129.654 6.85642C129.943 6.97664 130.202 7.15639 130.413 7.38336C130.912 7.93748 131.053 8.56679 131.053 11.0524C131.053 13.538 130.912 14.1475 130.413 14.7016C130.199 14.9263 129.94 15.1054 129.652 15.2279C129.364 15.3505 129.053 15.4137 128.739 15.4137C128.425 15.4137 128.114 15.3505 127.826 15.2279C127.538 15.1054 127.279 14.9263 127.065 14.7016C126.567 14.1475 126.425 13.5578 126.425 11.0524Z" fill="#181818"/>
<path fillRule="evenodd" clipRule="evenodd" d="M107.699 4.41492H111.825C112.941 4.41492 114.012 4.84821 114.802 5.61926C115.591 6.39049 116.035 7.43642 116.035 8.52707C116.035 9.61753 115.591 10.6637 114.802 11.4349C114.044 12.175 112.903 12.6392 111.825 12.6392H109.011V16.3732C109.011 17.0803 108.424 17.6538 107.699 17.6538C106.975 17.6538 106.388 17.0803 106.388 16.3732V5.69555C106.388 4.9882 106.975 4.41492 107.699 4.41492ZM109.011 10.3253H111.825C112.813 10.3057 113.666 9.49286 113.666 8.52707C113.666 7.54804 112.827 6.72803 111.825 6.7288H109.011V10.3253Z" fill="#181818"/>
<path d="M97.4474 4.41492C98.102 4.41492 98.6325 4.93306 98.6325 5.57227C98.6325 6.21148 98.102 6.72962 97.4474 6.72962H95.0485V16.3735C95.0485 17.0806 94.4614 17.6538 93.7375 17.6538C93.0136 17.6538 92.4264 17.0806 92.4264 16.3735V6.72962H90.0275C89.373 6.72962 88.8424 6.21148 88.8424 5.57227C88.8424 4.93306 89.373 4.41492 90.0275 4.41492H97.4474Z" fill="#181818"/>
</svg>
